<?xml version="1.0" encoding="UTF-8"?>
<!DOCTYPE svg PUBLIC "-//W3C//DTD SVG 1.1//EN" "http://www.w3.org/Graphics/SVG/1.1/DTD/svg11.dtd">
<svg xmlns="http://www.w3.org/2000/svg" version="1.1" width="512px" height="512px" style="shape-rendering:geometricPrecision; text-rendering:geometricPrecision; image-rendering:optimizeQuality; fill-rule:evenodd; clip-rule:evenodd" xmlns:xlink="http://www.w3.org/1999/xlink">
<g><path style="opacity:0.968" fill="#000000" d="M 119.5,223.5 C 139.046,221.183 152.213,229.183 159,247.5C 161.806,267.062 153.972,280.229 135.5,287C 115.938,289.806 102.771,281.972 96,263.5C 93.3184,243.849 101.152,230.516 119.5,223.5 Z"/></g>
<g><path style="opacity:0.968" fill="#000000" d="M 247.5,223.5 C 267.046,221.183 280.213,229.183 287,247.5C 289.806,267.062 281.972,280.229 263.5,287C 243.938,289.806 230.771,281.972 224,263.5C 221.318,243.849 229.152,230.516 247.5,223.5 Z"/></g>
<g><path style="opacity:0.968" fill="#000000" d="M 375.5,223.5 C 395.046,221.183 408.213,229.183 415,247.5C 417.806,267.062 409.972,280.229 391.5,287C 371.938,289.806 358.771,281.972 352,263.5C 349.318,243.849 357.152,230.516 375.5,223.5 Z"/></g>
</svg>
