<?xml version="1.0" encoding="UTF-8"?>
<!DOCTYPE svg PUBLIC "-//W3C//DTD SVG 1.1//EN" "http://www.w3.org/Graphics/SVG/1.1/DTD/svg11.dtd">
<svg xmlns="http://www.w3.org/2000/svg" version="1.1" width="512px" height="512px" style="shape-rendering:geometricPrecision; text-rendering:geometricPrecision; image-rendering:optimizeQuality; fill-rule:evenodd; clip-rule:evenodd" xmlns:xlink="http://www.w3.org/1999/xlink">
<g><path style="opacity:0.964" fill="#000000" d="M 241.5,-0.5 C 250.833,-0.5 260.167,-0.5 269.5,-0.5C 324.051,9.88618 355.885,42.5528 365,97.5C 365.667,152.833 365.667,208.167 365,263.5C 358.679,307.34 335.179,337.84 294.5,355C 242.913,371.024 200.079,358.19 166,316.5C 154.811,300.608 148.145,282.941 146,263.5C 145.333,208.167 145.333,152.833 146,97.5C 155.115,42.5528 186.949,9.88618 241.5,-0.5 Z M 243.5,30.5 C 284.57,27.7794 313.403,45.1127 330,82.5C 331.806,88.0555 333.139,93.7222 334,99.5C 334.667,153.5 334.667,207.5 334,261.5C 328.608,293.553 310.774,315.387 280.5,327C 243.507,336.913 213.341,326.747 190,296.5C 183.145,285.786 178.811,274.119 177,261.5C 176.333,207.5 176.333,153.5 177,99.5C 181.706,69.5915 197.873,48.4248 225.5,36C 231.531,33.8324 237.531,31.999 243.5,30.5 Z"/></g>
<g><path style="opacity:0.966" fill="#000000" d="M 270.5,511.5 C 260.5,511.5 250.5,511.5 240.5,511.5C 240.5,485.5 240.5,459.5 240.5,433.5C 166.284,425.103 113.451,387.103 82,319.5C 72.5629,296.084 67.7296,271.751 67.5,246.5C 77.8333,246.5 88.1667,246.5 98.5,246.5C 101.687,314.096 133.687,362.263 194.5,391C 262.807,415.663 322.307,402.163 373,350.5C 398.655,320.718 411.822,286.052 412.5,246.5C 422.833,246.5 433.167,246.5 443.5,246.5C 440.078,326.7 402.412,384.2 330.5,419C 311.331,427.292 291.331,432.126 270.5,433.5C 270.5,459.5 270.5,485.5 270.5,511.5 Z"/></g>
</svg>
