<?xml version="1.0" encoding="UTF-8"?>
<!DOCTYPE svg PUBLIC "-//W3C//DTD SVG 1.1//EN" "http://www.w3.org/Graphics/SVG/1.1/DTD/svg11.dtd">
<svg xmlns="http://www.w3.org/2000/svg" version="1.1" width="512px" height="512px" style="shape-rendering:geometricPrecision; text-rendering:geometricPrecision; image-rendering:optimizeQuality; fill-rule:evenodd; clip-rule:evenodd" xmlns:xlink="http://www.w3.org/1999/xlink">
<g><path style="opacity:0.987" fill="#000000" d="M 511.5,239.5 C 511.5,250.167 511.5,260.833 511.5,271.5C 504.252,319.57 479.252,355.07 436.5,378C 419.089,386.269 400.756,390.936 381.5,392C 339.5,392.167 297.5,392.333 255.5,392.5C 209.483,392.635 163.483,392.135 117.5,391C 50.7817,378.116 11.4484,338.282 -0.5,271.5C -0.5,260.833 -0.5,250.167 -0.5,239.5C 6.892,191.533 31.892,156.033 74.5,133C 91.5343,124.656 109.534,119.989 128.5,119C 212.833,118.333 297.167,118.333 381.5,119C 426.113,122.218 461.613,141.718 488,177.5C 500.497,196.503 508.33,217.169 511.5,239.5 Z M 125.5,151.5 C 169.282,149.471 202.782,166.804 226,203.5C 244,238.167 244,272.833 226,307.5C 197.037,351.164 156.87,366.998 105.5,355C 64.885,340.932 40.7183,312.765 33,270.5C 28.6068,224.62 45.7734,189.453 84.5,165C 97.4604,157.957 111.127,153.457 125.5,151.5 Z"/></g>
</svg>
