<?xml version="1.0" encoding="UTF-8"?>
<!DOCTYPE svg PUBLIC "-//W3C//DTD SVG 1.1//EN" "http://www.w3.org/Graphics/SVG/1.1/DTD/svg11.dtd">
<svg xmlns="http://www.w3.org/2000/svg" version="1.1" width="512px" height="512px" style="shape-rendering:geometricPrecision; text-rendering:geometricPrecision; image-rendering:optimizeQuality; fill-rule:evenodd; clip-rule:evenodd" xmlns:xlink="http://www.w3.org/1999/xlink">
<g><path style="opacity:0.955" fill="#000000" d="M 246.5,-0.5 C 252.5,-0.5 258.5,-0.5 264.5,-0.5C 282.586,4.42163 293.753,16.0883 298,34.5C 298.5,46.1619 298.667,57.8286 298.5,69.5C 349.909,86.4093 383.742,120.743 400,172.5C 401.59,179.115 402.923,185.782 404,192.5C 405.249,225.146 405.916,257.813 406,290.5C 410.541,332.924 429.208,367.591 462,394.5C 473.842,412.938 471.342,429.105 454.5,443C 451.382,444.893 448.049,446.226 444.5,447C 406.168,447.5 367.835,447.667 329.5,447.5C 324.951,474.556 310.285,494.056 285.5,506C 279.469,508.168 273.469,510.001 267.5,511.5C 259.5,511.5 251.5,511.5 243.5,511.5C 215.5,506.011 196,490.011 185,463.5C 183.198,458.292 182.031,452.959 181.5,447.5C 143.165,447.667 104.832,447.5 66.5,447C 50.9028,442.322 42.5695,431.822 41.5,415.5C 41.971,408.254 44.1377,401.587 48,395.5C 81.367,368.441 100.367,333.441 105,290.5C 105.084,257.813 105.751,225.146 107,192.5C 117.933,130.59 153.1,89.5905 212.5,69.5C 212.333,57.8286 212.5,46.1619 213,34.5C 217.247,16.0883 228.414,4.42163 246.5,-0.5 Z M 250.5,21.5 C 263.829,20.0724 272.329,25.7391 276,38.5C 276.5,47.1603 276.666,55.8269 276.5,64.5C 262.5,63.1667 248.5,63.1667 234.5,64.5C 234.334,55.8269 234.5,47.1603 235,38.5C 237.256,30.0814 242.423,24.4147 250.5,21.5 Z M 242.5,85.5 C 305.558,83.4263 349.725,111.093 375,168.5C 378.434,177.902 380.767,187.568 382,197.5C 383.214,230.484 383.881,263.484 384,296.5C 389.767,342.208 410.101,379.875 445,409.5C 447.548,414.966 446.714,419.8 442.5,424C 318.58,425.663 194.58,425.996 70.5,425C 64.4578,421.252 62.9578,416.085 66,409.5C 100.899,379.875 121.233,342.208 127,296.5C 127.119,263.484 127.786,230.484 129,197.5C 136.773,148.096 163.607,113.596 209.5,94C 220.351,90.0382 231.351,87.2049 242.5,85.5 Z M 203.5,448.5 C 237.998,447.336 272.664,447.169 307.5,448C 299.769,473.901 282.435,487.734 255.5,489.5C 228.71,487.7 211.377,474.033 203.5,448.5 Z"/></g>
</svg>
