<?xml version="1.0" encoding="UTF-8"?>
<!DOCTYPE svg PUBLIC "-//W3C//DTD SVG 1.1//EN" "http://www.w3.org/Graphics/SVG/1.1/DTD/svg11.dtd">
<svg xmlns="http://www.w3.org/2000/svg" version="1.1" width="512px" height="512px" style="shape-rendering:geometricPrecision; text-rendering:geometricPrecision; image-rendering:optimizeQuality; fill-rule:evenodd; clip-rule:evenodd" xmlns:xlink="http://www.w3.org/1999/xlink">
<g><path style="opacity:0.965" fill="#000000" d="M 511.5,196.5 C 511.5,201.833 511.5,207.167 511.5,212.5C 507.739,220.128 502.406,226.628 495.5,232C 460.704,261.794 426.204,291.961 392,322.5C 402.66,372.815 413.494,423.149 424.5,473.5C 423.57,490.93 414.404,500.263 397,501.5C 389.899,501.203 383.399,499.036 377.5,495C 337.201,470.199 296.535,446.032 255.5,422.5C 212.393,447.764 169.393,473.264 126.5,499C 109.033,505.008 96.1993,499.842 88,483.5C 86.5615,478.238 86.2282,472.904 87,467.5C 98.3179,419.237 108.985,370.903 119,322.5C 80.3694,288.871 42.0361,254.871 4,220.5C 2.72576,217.609 1.22576,214.942 -0.5,212.5C -0.5,207.167 -0.5,201.833 -0.5,196.5C 3.28664,185.555 10.9533,179.055 22.5,177C 72.1849,172.514 121.852,167.847 171.5,163C 191.796,116.24 211.962,69.4066 232,22.5C 239.836,11.7733 250.336,7.93994 263.5,11C 269.821,13.3262 274.987,17.1596 279,22.5C 299.038,69.4066 319.204,116.24 339.5,163C 390.87,167.7 442.204,172.7 493.5,178C 502.443,181.441 508.443,187.608 511.5,196.5 Z M 254.5,52.5 C 255.75,52.5774 256.583,53.244 257,54.5C 274.667,96.1667 292.333,137.833 310,179.5C 314.776,189.265 322.609,194.765 333.5,196C 379.221,199.853 424.887,204.187 470.5,209C 436.129,239.706 401.463,270.039 366.5,300C 359.12,307.347 356.287,316.18 358,326.5C 368.524,371.792 378.524,417.125 388,462.5C 346.88,437.356 305.38,412.856 263.5,389C 254.651,386.835 246.318,388.168 238.5,393C 200,416.167 161.5,439.333 123,462.5C 132.476,417.125 142.476,371.792 153,326.5C 154.713,316.18 151.88,307.347 144.5,300C 109.537,270.039 74.8705,239.706 40.5,209C 85.7781,204.247 131.111,199.914 176.5,196C 186.759,195.12 194.592,190.286 200,181.5C 218.465,138.598 236.632,95.5983 254.5,52.5 Z"/></g>
</svg>
