<?xml version="1.0" encoding="UTF-8"?>
<!DOCTYPE svg PUBLIC "-//W3C//DTD SVG 1.1//EN" "http://www.w3.org/Graphics/SVG/1.1/DTD/svg11.dtd">
<svg xmlns="http://www.w3.org/2000/svg" version="1.1" width="512px" height="512px" style="shape-rendering:geometricPrecision; text-rendering:geometricPrecision; image-rendering:optimizeQuality; fill-rule:evenodd; clip-rule:evenodd" xmlns:xlink="http://www.w3.org/1999/xlink">
<g><path style="opacity:0.964" fill="#000000" d="M 426.5,27.5 C 461.474,26.812 480.808,43.812 484.5,78.5C 484.248,83.5948 483.414,88.5948 482,93.5C 441.864,213.574 401.531,333.574 361,453.5C 347.902,477.962 327.735,487.129 300.5,481C 288.073,477.243 278.573,469.743 272,458.5C 246.921,412.006 221.587,365.673 196,319.5C 193.408,316.238 190.241,313.738 186.5,312C 139.514,287.175 92.8471,261.842 46.5,236C 29.3097,220.093 24.143,200.926 31,178.5C 36.4405,165.393 45.6072,155.893 58.5,150C 181.117,108.627 303.784,67.7942 426.5,27.5 Z M 420.5,63.5 C 421.239,63.369 421.906,63.5357 422.5,64C 350.014,137.653 277.014,210.82 203.5,283.5C 159.167,259.667 114.833,235.833 70.5,212C 60.537,205.45 58.3703,196.95 64,186.5C 66.2643,183.567 69.0976,181.4 72.5,180C 188.708,141.431 304.708,102.597 420.5,63.5 Z M 446.5,88.5 C 447.043,88.56 447.376,88.8933 447.5,89.5C 408.235,206.13 369.068,322.796 330,439.5C 321.565,452.252 311.565,453.585 300,443.5C 275.579,398.325 251.412,352.992 227.5,307.5C 300.215,234.119 373.215,161.119 446.5,88.5 Z"/></g>
</svg>
