<?xml version="1.0" encoding="UTF-8"?>
<!DOCTYPE svg PUBLIC "-//W3C//DTD SVG 1.1//EN" "http://www.w3.org/Graphics/SVG/1.1/DTD/svg11.dtd">
<svg xmlns="http://www.w3.org/2000/svg" version="1.1" width="512px" height="512px" style="shape-rendering:geometricPrecision; text-rendering:geometricPrecision; image-rendering:optimizeQuality; fill-rule:evenodd; clip-rule:evenodd" xmlns:xlink="http://www.w3.org/1999/xlink">
<g><path style="opacity:0.963" fill="#000000" d="M 236.5,59.5 C 306.369,55.1624 363.869,79.4958 409,132.5C 454.945,194.386 463.945,261.386 436,333.5C 403.579,401.899 349.745,441.066 274.5,451C 219.5,451.667 164.5,451.667 109.5,451C 100.208,448.095 95.2082,441.761 94.5,432C 94.8462,427.115 96.3462,422.615 99,418.5C 104.833,410.667 110.667,402.833 116.5,395C 64.5573,339.066 48.0573,273.899 67,199.5C 85.4564,141.709 122.29,100.209 177.5,75C 196.591,67.1453 216.258,61.9787 236.5,59.5 Z M 237.5,90.5 C 301.386,86.6019 352.553,109.935 391,160.5C 419.612,203.171 427.612,249.504 415,299.5C 396.5,358 358,396.5 299.5,415C 290.64,417.421 281.64,419.088 272.5,420C 227.167,420.667 181.833,420.667 136.5,420C 143.955,410.256 151.288,400.423 158.5,390.5C 101.003,343.85 80.1695,284.183 96,211.5C 114.5,153 153,114.5 211.5,96C 220.235,93.8279 228.902,91.9946 237.5,90.5 Z"/></g>
<g><path style="opacity:0.949" fill="#000000" d="M 176.5,234.5 C 195.981,233.147 204.814,242.147 203,261.5C 198.365,273.738 189.532,278.572 176.5,276C 163.943,271.057 159.109,261.891 162,248.5C 164.774,241.557 169.607,236.89 176.5,234.5 Z"/></g>
<g><path style="opacity:0.947" fill="#000000" d="M 249.5,234.5 C 268.981,233.147 277.814,242.147 276,261.5C 271.365,273.738 262.532,278.572 249.5,276C 237.262,271.365 232.428,262.532 235,249.5C 237.351,241.984 242.184,236.984 249.5,234.5 Z"/></g>
<g><path style="opacity:0.947" fill="#000000" d="M 322.5,234.5 C 338.746,232.424 348.079,239.424 350.5,255.5C 346.589,274.125 335.589,280.292 317.5,274C 307.242,266.271 304.742,256.438 310,244.5C 313.191,239.837 317.358,236.503 322.5,234.5 Z"/></g>
</svg>
