<?xml version="1.0" encoding="UTF-8"?>
<!DOCTYPE svg PUBLIC "-//W3C//DTD SVG 1.1//EN" "http://www.w3.org/Graphics/SVG/1.1/DTD/svg11.dtd">
<svg xmlns="http://www.w3.org/2000/svg" version="1.1" width="512px" height="512px" style="shape-rendering:geometricPrecision; text-rendering:geometricPrecision; image-rendering:optimizeQuality; fill-rule:evenodd; clip-rule:evenodd" xmlns:xlink="http://www.w3.org/1999/xlink">
<g><path style="opacity:0.971" fill="#000000" d="M 232.5,-0.5 C 247.833,-0.5 263.167,-0.5 278.5,-0.5C 379.371,12.3469 450.871,65.0136 493,157.5C 502.497,181.819 508.663,206.819 511.5,232.5C 511.5,247.5 511.5,262.5 511.5,277.5C 506.955,322.967 491.621,364.467 465.5,402C 456.167,408 446.833,408 437.5,402C 431.798,395.555 429.964,388.055 432,379.5C 474.908,313.993 482.241,244.66 454,171.5C 421.657,101.166 367.491,58.3327 291.5,43C 211.036,32.2617 143.869,57.095 90,117.5C 37.6135,185.168 26.6135,259.168 57,339.5C 96.7714,422.708 162.938,466.708 255.5,471.5C 297.107,470.351 335.774,459.185 371.5,438C 391.25,436.083 399.75,444.916 397,464.5C 395.698,468.274 393.531,471.441 390.5,474C 355.578,495.03 317.912,507.53 277.5,511.5C 262.5,511.5 247.5,511.5 232.5,511.5C 143.567,501.026 76.4004,457.36 31,380.5C 13.7076,348.465 3.20759,314.465 -0.5,278.5C -0.5,263.167 -0.5,247.833 -0.5,232.5C 11.9006,134.848 62.234,64.3481 150.5,21C 176.892,9.73692 204.225,2.57026 232.5,-0.5 Z"/></g>
<g><path style="opacity:0.992" fill="#000000" d="M 158.5,155.5 C 223.168,155.333 287.834,155.5 352.5,156C 363.752,161.343 367.919,170.176 365,182.5C 362.833,188.667 358.667,192.833 352.5,195C 287.833,195.667 223.167,195.667 158.5,195C 145.296,188.318 141.796,178.151 148,164.5C 150.84,160.673 154.34,157.673 158.5,155.5 Z"/></g>
<g><path style="opacity:0.992" fill="#000000" d="M 158.5,235.5 C 223.168,235.333 287.834,235.5 352.5,236C 363.752,241.343 367.919,250.176 365,262.5C 362.833,268.667 358.667,272.833 352.5,275C 287.833,275.667 223.167,275.667 158.5,275C 145.296,268.318 141.796,258.151 148,244.5C 150.84,240.673 154.34,237.673 158.5,235.5 Z"/></g>
<g><path style="opacity:0.992" fill="#000000" d="M 158.5,315.5 C 223.168,315.333 287.834,315.5 352.5,316C 363.752,321.343 367.919,330.176 365,342.5C 362.833,348.667 358.667,352.833 352.5,355C 287.833,355.667 223.167,355.667 158.5,355C 145.296,348.318 141.796,338.151 148,324.5C 150.84,320.673 154.34,317.673 158.5,315.5 Z"/></g>
</svg>
