<?xml version="1.0" encoding="UTF-8"?>
<!DOCTYPE svg PUBLIC "-//W3C//DTD SVG 1.1//EN" "http://www.w3.org/Graphics/SVG/1.1/DTD/svg11.dtd">
<svg xmlns="http://www.w3.org/2000/svg" version="1.1" width="512px" height="512px" style="shape-rendering:geometricPrecision; text-rendering:geometricPrecision; image-rendering:optimizeQuality; fill-rule:evenodd; clip-rule:evenodd" xmlns:xlink="http://www.w3.org/1999/xlink">
<g><path style="opacity:0.986" fill="#000000" d="M 511.5,451.5 C 511.5,458.167 511.5,464.833 511.5,471.5C 500.68,502.585 479.014,514.419 446.5,507C 441.601,505.551 436.935,503.551 432.5,501C 373.027,442.528 313.861,383.694 255,324.5C 196.139,383.694 136.973,442.528 77.5,501C 64.7136,508.114 51.0469,510.447 36.5,508C 16.7697,503.768 4.43636,491.935 -0.5,472.5C -0.5,465.833 -0.5,459.167 -0.5,452.5C 1.87349,443.091 6.37349,434.757 13,427.5C 70.5,370 128,312.5 185.5,255C 126.306,196.139 67.4724,136.973 9,77.5C -4.56138,50.2938 0.605287,27.4605 24.5,9C 43.1561,-0.893999 61.4895,-0.227332 79.5,11C 138.306,68.8057 196.806,126.972 255,185.5C 312.861,127.306 371.027,69.4724 429.5,12C 441.376,4.11647 454.376,1.4498 468.5,4C 498.372,13.221 510.872,33.3877 506,64.5C 504.136,70.5598 501.47,76.2264 498,81.5C 440.32,139.014 382.82,196.68 325.5,254.5C 383.181,313.014 441.347,371.014 500,428.5C 505.467,435.433 509.3,443.1 511.5,451.5 Z"/></g>
</svg>
