<?xml version="1.0" encoding="UTF-8"?>
<!DOCTYPE svg PUBLIC "-//W3C//DTD SVG 1.1//EN" "http://www.w3.org/Graphics/SVG/1.1/DTD/svg11.dtd">
<svg xmlns="http://www.w3.org/2000/svg" version="1.1" width="512px" height="512px" style="shape-rendering:geometricPrecision; text-rendering:geometricPrecision; image-rendering:optimizeQuality; fill-rule:evenodd; clip-rule:evenodd" xmlns:xlink="http://www.w3.org/1999/xlink">
<g><path style="opacity:0.986" fill="#000000" d="M 251.5,85.5 C 255.839,84.8461 259.673,85.8461 263,88.5C 279.417,115.002 296.083,141.336 313,167.5C 314.798,169.972 317.132,171.639 320,172.5C 360.235,145.628 400.068,118.128 439.5,90C 449.602,87.4509 454.102,91.2842 453,101.5C 436.206,172.471 419.539,243.471 403,314.5C 401.52,317.663 399.02,319.496 395.5,320C 302.167,320.667 208.833,320.667 115.5,320C 112.966,319.484 110.8,318.317 109,316.5C 91.7487,244.914 74.7487,173.247 58,101.5C 58.0507,89.5469 63.5507,86.3802 74.5,92C 112.804,119.643 151.637,146.477 191,172.5C 193.868,171.639 196.202,169.972 198,167.5C 215.124,139.553 232.957,112.219 251.5,85.5 Z"/></g>
<g><path style="opacity:0.988" fill="#000000" d="M 127.5,366.5 C 212.834,366.333 298.167,366.5 383.5,367C 386.59,369.016 388.257,371.849 388.5,375.5C 385.158,390.535 381.658,405.535 378,420.5C 377.167,422.667 375.667,424.167 373.5,425C 294.833,425.667 216.167,425.667 137.5,425C 135.333,424.167 133.833,422.667 133,420.5C 128.697,404.632 125.364,388.632 123,372.5C 124.332,370.34 125.832,368.34 127.5,366.5 Z"/></g>
</svg>
