<?xml version="1.0" encoding="UTF-8"?>
<!DOCTYPE svg PUBLIC "-//W3C//DTD SVG 1.1//EN" "http://www.w3.org/Graphics/SVG/1.1/DTD/svg11.dtd">
<svg xmlns="http://www.w3.org/2000/svg" version="1.1" width="512px" height="512px" style="shape-rendering:geometricPrecision; text-rendering:geometricPrecision; image-rendering:optimizeQuality; fill-rule:evenodd; clip-rule:evenodd" xmlns:xlink="http://www.w3.org/1999/xlink">
<g><path style="opacity:0.981" fill="#000000" d="M 247.5,-0.5 C 252.833,-0.5 258.167,-0.5 263.5,-0.5C 274.35,3.51991 281.183,11.1866 284,22.5C 284.333,114.5 284.667,206.5 285,298.5C 306.833,276.667 328.667,254.833 350.5,233C 367.968,222.244 382.801,225.077 395,241.5C 400.033,252.226 399.366,262.56 393,272.5C 352.833,312.667 312.667,352.833 272.5,393C 261.204,400.325 249.871,400.325 238.5,393C 198.333,352.833 158.167,312.667 118,272.5C 108.789,255.552 111.956,241.385 127.5,230C 139.071,224.724 150.071,225.724 160.5,233C 182.333,254.833 204.167,276.667 226,298.5C 226.333,206.5 226.667,114.5 227,22.5C 229.817,11.1866 236.65,3.51991 247.5,-0.5 Z"/></g>
<g><path style="opacity:0.988" fill="#000000" d="M 511.5,361.5 C 511.5,378.5 511.5,395.5 511.5,412.5C 500.833,467.833 467.833,500.833 412.5,511.5C 307.833,511.5 203.167,511.5 98.5,511.5C 43.6231,500.957 10.6231,468.29 -0.5,413.5C -0.5,396.167 -0.5,378.833 -0.5,361.5C 5.6175,345.434 17.2842,338.601 34.5,341C 45.2377,344.071 52.4044,350.904 56,361.5C 56.3333,374.167 56.6667,386.833 57,399.5C 59.0683,423.23 70.9016,440.063 92.5,450C 98.29,452.281 104.29,453.614 110.5,454C 207.167,454.667 303.833,454.667 400.5,454C 423.698,451.463 440.198,439.63 450,418.5C 452.442,412.4 453.775,406.067 454,399.5C 454.333,386.833 454.667,374.167 455,361.5C 462.689,342.819 476.189,336.653 495.5,343C 503.226,347.217 508.559,353.384 511.5,361.5 Z"/></g>
</svg>
