<?xml version="1.0" encoding="UTF-8"?>
<!DOCTYPE svg PUBLIC "-//W3C//DTD SVG 1.1//EN" "http://www.w3.org/Graphics/SVG/1.1/DTD/svg11.dtd">
<svg xmlns="http://www.w3.org/2000/svg" version="1.1" width="512px" height="512px" style="shape-rendering:geometricPrecision; text-rendering:geometricPrecision; image-rendering:optimizeQuality; fill-rule:evenodd; clip-rule:evenodd" xmlns:xlink="http://www.w3.org/1999/xlink">
<g><path style="opacity:0.974" fill="#000000" d="M 429.5,-0.5 C 437.5,-0.5 445.5,-0.5 453.5,-0.5C 484.5,7.16667 503.833,26.5 511.5,57.5C 511.5,65.5 511.5,73.5 511.5,81.5C 509.098,93.1785 504.265,103.845 497,113.5C 413.833,196.667 330.667,279.833 247.5,363C 207.725,376.87 167.725,390.036 127.5,402.5C 114.59,400.762 108.424,393.429 109,380.5C 121.601,341.363 134.601,302.363 148,263.5C 231.167,180.333 314.333,97.1667 397.5,14C 407.155,6.73486 417.822,1.90153 429.5,-0.5 Z M 438.5,36.5 C 459.784,37.4615 471.784,48.4615 474.5,69.5C 474.12,77.8122 471.286,85.1456 466,91.5C 386.5,171 307,250.5 227.5,330C 204.219,338.485 180.886,345.985 157.5,352.5C 165.235,329.463 173.068,306.463 181,283.5C 260.167,204.333 339.333,125.167 418.5,46C 424.353,40.9046 431.02,37.7379 438.5,36.5 Z"/></g>
<g><path style="opacity:0.98" fill="#000000" d="M 394.5,511.5 C 277.5,511.5 160.5,511.5 43.5,511.5C 20.5,505.167 5.83333,490.5 -0.5,467.5C -0.5,338.5 -0.5,209.5 -0.5,80.5C 5.64208,55.196 21.6421,40.3627 47.5,36C 124.5,35.3333 201.5,35.3333 278.5,36C 290.829,40.8284 294.995,49.6617 291,62.5C 287.714,68.7878 282.547,72.2878 275.5,73C 200.167,73.3333 124.833,73.6667 49.5,74C 42.9299,76.238 38.7633,80.738 37,87.5C 36.3333,211.833 36.3333,336.167 37,460.5C 38.8333,467.667 43.3333,472.167 50.5,474C 162.833,474.667 275.167,474.667 387.5,474C 394.739,471.76 399.239,466.926 401,459.5C 401.333,395.833 401.667,332.167 402,268.5C 406.46,257.352 414.626,253.186 426.5,256C 432.088,258.586 435.921,262.753 438,268.5C 438.667,334.5 438.667,400.5 438,466.5C 432.429,490.237 417.929,505.237 394.5,511.5 Z"/></g>
</svg>
