<?xml version="1.0" encoding="UTF-8"?>
<!DOCTYPE svg PUBLIC "-//W3C//DTD SVG 1.1//EN" "http://www.w3.org/Graphics/SVG/1.1/DTD/svg11.dtd">
<svg xmlns="http://www.w3.org/2000/svg" version="1.1" width="512px" height="512px" style="shape-rendering:geometricPrecision; text-rendering:geometricPrecision; image-rendering:optimizeQuality; fill-rule:evenodd; clip-rule:evenodd" xmlns:xlink="http://www.w3.org/1999/xlink">
<g><path style="opacity:0.964" fill="#000000" d="M 234.5,31.5 C 319.59,26.8054 387.757,58.1387 439,125.5C 484.783,195.228 492.117,268.895 461,346.5C 423.571,423.895 362.071,468.061 276.5,479C 191.387,484.184 123.221,453.017 72,385.5C 26.2162,315.77 18.8829,242.103 50,164.5C 87.5875,87.0902 149.088,42.7568 234.5,31.5 Z M 252.5,63.5 C 334.239,66.2574 393.406,103.924 430,176.5C 450.866,226.428 451.866,276.761 433,327.5C 405.962,388.867 359.795,427.367 294.5,443C 213.057,456.196 147.557,430.03 98,364.5C 62.7215,310.611 55.0548,252.944 75,191.5C 99.7959,127.037 145.629,86.2034 212.5,69C 225.849,66.1665 239.182,64.3332 252.5,63.5 Z M 319.5,191.5 C 305.783,219.935 291.783,248.268 277.5,276.5C 249.09,291.372 220.423,305.705 191.5,319.5C 205.217,291.065 219.217,262.732 233.5,234.5C 261.91,219.628 290.577,205.295 319.5,191.5 Z"/></g>
<g><path style="opacity:0.964" fill="#000000" d="M 351.5,137.5 C 367.488,135.655 374.654,142.655 373,158.5C 349.861,206.112 326.194,253.445 302,300.5C 255.557,324.972 208.723,348.805 161.5,372C 144.401,375.708 136.568,368.875 138,351.5C 161.411,304.345 185.078,257.345 209,210.5C 211.167,209 213.333,207.5 215.5,206C 261.05,183.392 306.383,160.559 351.5,137.5 Z M 319.5,191.5 C 305.783,219.935 291.783,248.268 277.5,276.5C 249.09,291.372 220.423,305.705 191.5,319.5C 205.217,291.065 219.217,262.732 233.5,234.5C 261.91,219.628 290.577,205.295 319.5,191.5 Z"/></g>
</svg>
