<?xml version="1.0" encoding="UTF-8"?>
<!DOCTYPE svg PUBLIC "-//W3C//DTD SVG 1.1//EN" "http://www.w3.org/Graphics/SVG/1.1/DTD/svg11.dtd">
<svg xmlns="http://www.w3.org/2000/svg" version="1.1" width="512px" height="512px" style="shape-rendering:geometricPrecision; text-rendering:geometricPrecision; image-rendering:optimizeQuality; fill-rule:evenodd; clip-rule:evenodd" xmlns:xlink="http://www.w3.org/1999/xlink">
<g><path style="opacity:0.986" fill="#000000" d="M 270.5,41.5 C 302.35,40.8791 324.683,55.0458 337.5,84C 381.499,84.5 425.499,84.6667 469.5,84.5C 469.5,98.8333 469.5,113.167 469.5,127.5C 425.499,127.333 381.499,127.5 337.5,128C 321.966,162.268 295.632,175.601 258.5,168C 238.192,161.525 224.192,148.358 216.5,128.5C 158.17,127.5 99.8371,127.167 41.5,127.5C 41.5,113.167 41.5,98.8333 41.5,84.5C 99.8371,84.8333 158.17,84.5 216.5,83.5C 226.658,59.3346 244.658,45.3346 270.5,41.5 Z"/></g>
<g><path style="opacity:0.975" fill="#000000" d="M 137.5,191.5 C 171.339,188.578 195.339,202.411 209.5,233C 296.166,233.5 382.833,233.667 469.5,233.5C 469.5,248.167 469.5,262.833 469.5,277.5C 382.833,277.333 296.166,277.5 209.5,278C 194.19,310.925 168.523,324.258 132.5,318C 111.704,311.706 97.0374,298.539 88.5,278.5C 72.8475,277.501 57.1808,277.167 41.5,277.5C 41.5,262.833 41.5,248.167 41.5,233.5C 57.1808,233.833 72.8475,233.499 88.5,232.5C 97.938,210.38 114.271,196.714 137.5,191.5 Z"/></g>
<g><path style="opacity:0.986" fill="#000000" d="M 331.5,340.5 C 364.897,338.447 388.23,352.613 401.5,383C 424.164,383.5 446.831,383.667 469.5,383.5C 469.5,397.833 469.5,412.167 469.5,426.5C 446.831,426.333 424.164,426.5 401.5,427C 385.925,460.455 359.925,473.788 323.5,467C 302.845,460.679 288.512,447.513 280.5,427.5C 200.836,426.5 121.169,426.167 41.5,426.5C 41.5,412.167 41.5,397.833 41.5,383.5C 121.169,383.833 200.836,383.5 280.5,382.5C 289.976,359.274 306.976,345.274 331.5,340.5 Z"/></g>
</svg>
