<?xml version="1.0" encoding="UTF-8"?>
<!DOCTYPE svg PUBLIC "-//W3C//DTD SVG 1.1//EN" "http://www.w3.org/Graphics/SVG/1.1/DTD/svg11.dtd">
<svg xmlns="http://www.w3.org/2000/svg" version="1.1" width="512px" height="512px" style="shape-rendering:geometricPrecision; text-rendering:geometricPrecision; image-rendering:optimizeQuality; fill-rule:evenodd; clip-rule:evenodd" xmlns:xlink="http://www.w3.org/1999/xlink">
<g><path style="opacity:0.984" fill="#000000" d="M 227.5,111.5 C 244.774,111.777 254.44,120.444 256.5,137.5C 256.059,146.881 252.059,154.381 244.5,160C 218.5,183.333 192.5,206.667 166.5,230C 250.5,230.333 334.5,230.667 418.5,231C 436.261,239.519 440.761,252.685 432,270.5C 428.429,275.031 423.929,278.198 418.5,280C 334.167,280.333 249.833,280.667 165.5,281C 193.661,306.828 221.495,332.995 249,359.5C 256.593,375.255 253.093,387.755 238.5,397C 228.95,400.848 219.95,399.848 211.5,394C 167.032,353.2 122.866,312.034 79,270.5C 73,260.5 73,250.5 79,240.5C 123.5,200 168,159.5 212.5,119C 217.06,115.386 222.06,112.886 227.5,111.5 Z"/></g>
</svg>
