<?xml version="1.0" encoding="UTF-8"?>
<!DOCTYPE svg PUBLIC "-//W3C//DTD SVG 1.1//EN" "http://www.w3.org/Graphics/SVG/1.1/DTD/svg11.dtd">
<svg xmlns="http://www.w3.org/2000/svg" version="1.1" width="512px" height="512px" style="shape-rendering:geometricPrecision; text-rendering:geometricPrecision; image-rendering:optimizeQuality; fill-rule:evenodd; clip-rule:evenodd" xmlns:xlink="http://www.w3.org/1999/xlink">
<g><path style="opacity:0.964" fill="#000000" d="M 109.5,95.5 C 125.503,95.3334 141.503,95.5001 157.5,96C 164.401,98.5683 168.901,103.402 171,110.5C 171.667,126.833 171.667,143.167 171,159.5C 168.737,166.097 164.237,170.264 157.5,172C 141.833,172.667 126.167,172.667 110.5,172C 103.974,169.474 99.4742,164.974 97,158.5C 96.8248,143.592 96.3248,128.759 95.5,114C 96.6083,105.068 101.275,98.9012 109.5,95.5 Z M 126.5,116.5 C 134.5,116.5 142.5,116.5 150.5,116.5C 150.5,127.833 150.5,139.167 150.5,150.5C 139.501,150.872 128.501,151.206 117.5,151.5C 116.819,140.179 116.486,128.846 116.5,117.5C 120.042,117.813 123.375,117.479 126.5,116.5 Z"/></g>
<g><path style="opacity:0.925" fill="#000000" d="M 211.5,125.5 C 276.168,125.333 340.834,125.5 405.5,126C 415.444,128.098 418.277,133.932 414,143.5C 412.363,145.81 410.196,147.31 407.5,148C 341.5,148.667 275.5,148.667 209.5,148C 201.277,143.85 199.444,137.684 204,129.5C 206.255,127.501 208.755,126.168 211.5,125.5 Z"/></g>
<g><path style="opacity:0.955" fill="#000000" d="M 113.5,217.5 C 127.504,217.333 141.504,217.5 155.5,218C 163.998,219.488 169.498,224.322 172,232.5C 172.667,248.167 172.667,263.833 172,279.5C 168.969,287.201 163.469,292.034 155.5,294C 141.167,294.667 126.833,294.667 112.5,294C 104.862,292.363 99.6954,287.863 97,280.5C 96.3333,264.167 96.3333,247.833 97,231.5C 99.9805,223.674 105.481,219.007 113.5,217.5 Z M 145.5,237.5 C 147.167,237.5 148.833,237.5 150.5,237.5C 150.5,249.167 150.5,260.833 150.5,272.5C 139.469,272.26 128.469,272.593 117.5,273.5C 116.806,261.846 116.473,250.18 116.5,238.5C 126.348,238.827 136.014,238.494 145.5,237.5 Z"/></g>
<g><path style="opacity:0.963" fill="#000000" d="M 209.5,247.5 C 275.834,247.333 342.168,247.5 408.5,248C 413.704,249.572 416.037,253.072 415.5,258.5C 415.953,263.429 413.953,266.929 409.5,269C 342.167,269.667 274.833,269.667 207.5,269C 201.755,264.754 200.255,259.254 203,252.5C 204.805,250.174 206.972,248.508 209.5,247.5 Z"/></g>
<g><path style="opacity:0.966" fill="#000000" d="M 109.5,338.5 C 125.17,338.333 140.837,338.5 156.5,339C 164,341.167 168.833,346 171,353.5C 171.667,369.833 171.667,386.167 171,402.5C 168.833,408.667 164.667,412.833 158.5,415C 142.167,415.667 125.833,415.667 109.5,415C 102.974,412.474 98.4742,407.974 96,401.5C 95.3333,385.167 95.3333,368.833 96,352.5C 98.6614,346.006 103.161,341.339 109.5,338.5 Z M 132.5,359.5 C 138.5,359.5 144.5,359.5 150.5,359.5C 150.5,370.833 150.5,382.167 150.5,393.5C 139.514,394.209 128.514,394.543 117.5,394.5C 116.778,383.181 116.445,371.848 116.5,360.5C 122.026,360.821 127.36,360.488 132.5,359.5 Z"/></g>
<g><path style="opacity:0.964" fill="#000000" d="M 207.5,369.5 C 274.834,369.333 342.167,369.5 409.5,370C 413.953,372.071 415.953,375.571 415.5,380.5C 415.542,385.583 413.209,389.083 408.5,391C 342.167,391.667 275.833,391.667 209.5,391C 201.277,386.92 199.444,380.753 204,372.5C 205.145,371.364 206.312,370.364 207.5,369.5 Z"/></g>
</svg>
