<?xml version="1.0" encoding="UTF-8"?>
<!DOCTYPE svg PUBLIC "-//W3C//DTD SVG 1.1//EN" "http://www.w3.org/Graphics/SVG/1.1/DTD/svg11.dtd">
<svg xmlns="http://www.w3.org/2000/svg" version="1.1" width="512px" height="512px" style="shape-rendering:geometricPrecision; text-rendering:geometricPrecision; image-rendering:optimizeQuality; fill-rule:evenodd; clip-rule:evenodd" xmlns:xlink="http://www.w3.org/1999/xlink">
<g><path style="opacity:0.982" fill="#000000" d="M 254.5,-0.5 C 262.167,-0.5 269.833,-0.5 277.5,-0.5C 312.897,9.76532 329.397,33.432 327,70.5C 319.765,103.571 299.265,120.905 265.5,122.5C 238.483,121.641 219.317,108.974 208,84.5C 197.735,51.9596 206.568,26.1262 234.5,7C 240.96,3.58835 247.627,1.08835 254.5,-0.5 Z"/></g>
<g><path style="opacity:0.979" fill="#000000" d="M 115.5,65.5 C 145.684,64.1632 166.184,77.4966 177,105.5C 183.792,137.075 172.959,160.242 144.5,175C 111.59,185.287 86.7563,175.454 70,145.5C 59.8276,115.353 67.661,91.1863 93.5,73C 100.578,69.3637 107.911,66.8637 115.5,65.5 Z"/></g>
<g><path style="opacity:0.955" fill="#000000" d="M 402.5,96.5 C 421.775,94.7831 432.775,103.45 435.5,122.5C 432.97,141.196 422.303,149.696 403.5,148C 386.118,141.739 379.952,129.573 385,111.5C 388.889,104.103 394.722,99.103 402.5,96.5 Z"/></g>
<g><path style="opacity:0.977" fill="#000000" d="M 50.5,214.5 C 80.6929,211.573 100.86,224.24 111,252.5C 116.34,284.334 103.84,305.5 73.5,316C 42.5831,320.962 21.7498,308.795 11,279.5C 5.82832,246.486 18.995,224.82 50.5,214.5 Z"/></g>
<g><path style="opacity:0.963" fill="#000000" d="M 464.5,234.5 C 490.417,234.02 502.584,246.687 501,272.5C 493.382,294.168 478.548,301.335 456.5,294C 439.877,283.358 435.377,268.858 443,250.5C 448.071,242.251 455.238,236.917 464.5,234.5 Z"/></g>
<g><path style="opacity:0.975" fill="#000000" d="M 116.5,362.5 C 143.377,361.569 160.544,373.902 168,399.5C 171.295,428.758 158.795,447.258 130.5,455C 103.056,457.535 85.2226,445.701 77,419.5C 73.535,388.821 86.7017,369.821 116.5,362.5 Z"/></g>
<g><path style="opacity:0.967" fill="#000000" d="M 406.5,372.5 C 430.227,373.561 443.227,385.895 445.5,409.5C 443.167,431.167 431.167,443.167 409.5,445.5C 387.313,443.647 374.98,431.647 372.5,409.5C 374.221,388.12 385.554,375.786 406.5,372.5 Z"/></g>
<g><path style="opacity:0.973" fill="#000000" d="M 275.5,511.5 C 269.167,511.5 262.833,511.5 256.5,511.5C 232.984,503.772 222.484,487.439 225,462.5C 230.553,441.652 244.053,430.652 265.5,429.5C 286.334,430.159 299.834,440.492 306,460.5C 309.638,485.907 299.472,502.907 275.5,511.5 Z"/></g>
</svg>
