<?xml version="1.0" encoding="UTF-8"?>
<!DOCTYPE svg PUBLIC "-//W3C//DTD SVG 1.1//EN" "http://www.w3.org/Graphics/SVG/1.1/DTD/svg11.dtd">
<svg xmlns="http://www.w3.org/2000/svg" version="1.1" width="512px" height="512px" style="shape-rendering:geometricPrecision; text-rendering:geometricPrecision; image-rendering:optimizeQuality; fill-rule:evenodd; clip-rule:evenodd" xmlns:xlink="http://www.w3.org/1999/xlink">
<g><path style="opacity:0.994" fill="#000000" d="M 238.5,-0.5 C 249.833,-0.5 261.167,-0.5 272.5,-0.5C 340.887,11.0494 384.053,50.3827 402,117.5C 403.711,125.747 404.711,134.081 405,142.5C 405.5,158.83 405.667,175.163 405.5,191.5C 417.505,191.333 429.505,191.5 441.5,192C 444,193.167 445.833,195 447,197.5C 447.667,291.167 447.667,384.833 447,478.5C 441.984,495.349 431.15,506.349 414.5,511.5C 308.5,511.5 202.5,511.5 96.5,511.5C 79.8497,506.349 69.0164,495.349 64,478.5C 63.3333,384.833 63.3333,291.167 64,197.5C 65.1667,195 67,193.167 69.5,192C 81.4954,191.5 93.4954,191.333 105.5,191.5C 105.333,175.163 105.5,158.83 106,142.5C 109.449,90.7463 132.616,50.5796 175.5,22C 195.077,10.199 216.077,2.69902 238.5,-0.5 Z M 243.5,64.5 C 284.346,61.8318 314.179,78.4985 333,114.5C 335.807,120.921 337.807,127.588 339,134.5C 340.391,153.466 340.891,172.466 340.5,191.5C 283.833,191.5 227.167,191.5 170.5,191.5C 170.109,172.466 170.609,153.466 172,134.5C 180.904,95.7609 204.738,72.4275 243.5,64.5 Z M 249.5,277.5 C 278.465,277.134 294.465,291.301 297.5,320C 297.149,333.536 291.649,344.369 281,352.5C 282.316,372.683 284.149,392.85 286.5,413C 287.089,418.737 284.755,422.737 279.5,425C 263.5,425.667 247.5,425.667 231.5,425C 228.417,424.214 226.251,422.381 225,419.5C 225.876,398.611 227.709,377.778 230.5,357C 230.333,355.5 230.167,354 230,352.5C 214.119,338.982 209.786,322.315 217,302.5C 223.964,289.025 234.797,280.691 249.5,277.5 Z"/></g>
</svg>
