<?xml version="1.0" encoding="UTF-8"?>
<!DOCTYPE svg PUBLIC "-//W3C//DTD SVG 1.1//EN" "http://www.w3.org/Graphics/SVG/1.1/DTD/svg11.dtd">
<svg xmlns="http://www.w3.org/2000/svg" version="1.1" width="512px" height="512px" style="shape-rendering:geometricPrecision; text-rendering:geometricPrecision; image-rendering:optimizeQuality; fill-rule:evenodd; clip-rule:evenodd" xmlns:xlink="http://www.w3.org/1999/xlink">
<g><path style="opacity:0.991" fill="#000000" d="M 117.5,20.5 C 209.501,20.3333 301.501,20.5 393.5,21C 424.26,27.3351 441.093,46.1685 444,77.5C 444.667,199.167 444.667,320.833 444,442.5C 439.309,471.184 422.476,484.018 393.5,481C 391.122,480.489 388.788,479.822 386.5,479C 350.235,457.063 314.235,434.729 278.5,412C 263.167,403.333 247.833,403.333 232.5,412C 195.968,435.432 158.968,458.099 121.5,480C 98.1069,485.55 80.9403,477.717 70,456.5C 68.2625,452.339 67.2625,448.005 67,443.5C 66.3333,321.5 66.3333,199.5 67,77.5C 70.011,46.0881 86.8443,27.0881 117.5,20.5 Z M 169.5,127.5 C 226.834,127.333 284.168,127.5 341.5,128C 359.869,132.238 365.369,143.072 358,160.5C 354.908,164.928 350.741,167.761 345.5,169C 285.5,169.667 225.5,169.667 165.5,169C 152.04,163.913 147.206,154.413 151,140.5C 155.143,133.177 161.309,128.844 169.5,127.5 Z"/></g>
</svg>
