<?xml version="1.0" encoding="UTF-8"?>
<!DOCTYPE svg PUBLIC "-//W3C//DTD SVG 1.1//EN" "http://www.w3.org/Graphics/SVG/1.1/DTD/svg11.dtd">
<svg xmlns="http://www.w3.org/2000/svg" version="1.1" width="512px" height="512px" style="shape-rendering:geometricPrecision; text-rendering:geometricPrecision; image-rendering:optimizeQuality; fill-rule:evenodd; clip-rule:evenodd" xmlns:xlink="http://www.w3.org/1999/xlink">
<g><path style="opacity:0.98" fill="#606060" d="M 367.5,191.5 C 356.833,191.5 346.167,191.5 335.5,191.5C 335.977,175.087 335.144,158.753 333,142.5C 321.736,103.749 295.903,82.7488 255.5,79.5C 207.075,84.4251 180.575,111.092 176,159.5C 175.5,170.161 175.333,180.828 175.5,191.5C 164.833,191.5 154.167,191.5 143.5,191.5C 143.333,175.83 143.5,160.163 144,144.5C 152.649,95.0332 181.149,63.5332 229.5,50C 287.504,40.2546 330.338,61.0879 358,112.5C 362.554,122.716 365.554,133.383 367,144.5C 367.5,160.163 367.667,175.83 367.5,191.5 Z M 335.5,191.5 C 282.167,191.5 228.833,191.5 175.5,191.5C 175.333,180.828 175.5,170.161 176,159.5C 180.575,111.092 207.075,84.4251 255.5,79.5C 295.903,82.7488 321.736,103.749 333,142.5C 335.144,158.753 335.977,175.087 335.5,191.5 Z"/></g>
<g><path style="opacity:0.999" fill="#f44336" d="M 143.5,191.5 C 154.167,191.5 164.833,191.5 175.5,191.5C 228.833,191.5 282.167,191.5 335.5,191.5C 346.167,191.5 356.833,191.5 367.5,191.5C 392.636,192.464 408.469,205.13 415,229.5C 415.667,294.833 415.667,360.167 415,425.5C 409.833,445.333 397.333,457.833 377.5,463C 296.167,463.667 214.833,463.667 133.5,463C 113.667,457.833 101.167,445.333 96,425.5C 95.3333,360.167 95.3333,294.833 96,229.5C 102.531,205.13 118.364,192.464 143.5,191.5 Z"/></g>
<g><path style="opacity:1" fill="#f5f4f3" d="M 245.5,255.5 C 275.41,253.016 294.577,266.016 303,294.5C 305.569,320.041 295.236,338.041 272,348.5C 271.948,362.568 271.281,376.568 270,390.5C 264.039,399.283 256.206,401.449 246.5,397C 243.131,394.635 240.964,391.468 240,387.5C 239.833,374.487 239.333,361.487 238.5,348.5C 215.633,337.774 205.467,319.774 208,294.5C 212.906,274.096 225.406,261.096 245.5,255.5 Z"/></g>
</svg>
