<?xml version="1.0" encoding="UTF-8"?>
<!DOCTYPE svg PUBLIC "-//W3C//DTD SVG 1.1//EN" "http://www.w3.org/Graphics/SVG/1.1/DTD/svg11.dtd">
<svg xmlns="http://www.w3.org/2000/svg" version="1.1" width="512px" height="512px" style="shape-rendering:geometricPrecision; text-rendering:geometricPrecision; image-rendering:optimizeQuality; fill-rule:evenodd; clip-rule:evenodd" xmlns:xlink="http://www.w3.org/1999/xlink">
<g><path style="opacity:0.966" fill="#000000" d="M 233.5,-0.5 C 248.167,-0.5 262.833,-0.5 277.5,-0.5C 367.555,10.0943 435.388,54.4276 481,132.5C 497.855,164.278 508.022,197.945 511.5,233.5C 511.5,248.167 511.5,262.833 511.5,277.5C 500.906,367.555 456.572,435.388 378.5,481C 346.722,497.855 313.055,508.022 277.5,511.5C 262.833,511.5 248.167,511.5 233.5,511.5C 143.445,500.906 75.612,456.572 30,378.5C 13.1449,346.722 2.97822,313.055 -0.5,277.5C -0.5,262.833 -0.5,248.167 -0.5,233.5C 10.0943,143.445 54.4276,75.612 132.5,30C 164.278,13.1449 197.945,2.97822 233.5,-0.5 Z M 243.5,31.5 C 334.854,30.7412 404.02,69.0745 451,146.5C 490.108,222.232 488.775,297.232 447,371.5C 392.28,453.264 315.78,488.097 217.5,476C 137.441,459.594 80.9406,414.094 48,339.5C 19.2353,261.277 28.902,188.277 77,120.5C 119.491,66.8332 174.991,37.1665 243.5,31.5 Z"/></g>
<g><path style="opacity:0.984" fill="#000000" d="M 190.5,155.5 C 248.169,188.332 305.502,221.665 362.5,255.5C 305.615,289.197 248.448,322.53 191,355.5C 190.5,288.834 190.333,222.167 190.5,155.5 Z"/></g>
</svg>
