<?xml version="1.0" encoding="UTF-8"?>
<!DOCTYPE svg PUBLIC "-//W3C//DTD SVG 1.1//EN" "http://www.w3.org/Graphics/SVG/1.1/DTD/svg11.dtd">
<svg xmlns="http://www.w3.org/2000/svg" version="1.1" width="512px" height="512px" style="shape-rendering:geometricPrecision; text-rendering:geometricPrecision; image-rendering:optimizeQuality; fill-rule:evenodd; clip-rule:evenodd" xmlns:xlink="http://www.w3.org/1999/xlink">
<g><path style="opacity:0.996" fill="#000000" d="M 245.5,-0.5 C 252.167,-0.5 258.833,-0.5 265.5,-0.5C 283.484,4.65165 294.984,16.3183 300,34.5C 300.5,93.1657 300.667,151.832 300.5,210.5C 359.168,210.333 417.834,210.5 476.5,211C 494.682,216.016 506.348,227.516 511.5,245.5C 511.5,252.167 511.5,258.833 511.5,265.5C 506.348,283.484 494.682,294.984 476.5,300C 417.834,300.5 359.168,300.667 300.5,300.5C 300.667,359.168 300.5,417.834 300,476.5C 294.984,494.682 283.484,506.348 265.5,511.5C 258.833,511.5 252.167,511.5 245.5,511.5C 227.516,506.348 216.016,494.682 211,476.5C 210.5,417.834 210.333,359.168 210.5,300.5C 151.832,300.667 93.1657,300.5 34.5,300C 16.3183,294.984 4.65165,283.484 -0.5,265.5C -0.5,258.833 -0.5,252.167 -0.5,245.5C 4.65165,227.516 16.3183,216.016 34.5,211C 93.1657,210.5 151.832,210.333 210.5,210.5C 210.333,151.832 210.5,93.1657 211,34.5C 216.016,16.3183 227.516,4.65165 245.5,-0.5 Z"/></g>
</svg>
