<?xml version="1.0" encoding="UTF-8"?>
<!DOCTYPE svg PUBLIC "-//W3C//DTD SVG 1.1//EN" "http://www.w3.org/Graphics/SVG/1.1/DTD/svg11.dtd">
<svg xmlns="http://www.w3.org/2000/svg" version="1.1" width="512px" height="512px" style="shape-rendering:geometricPrecision; text-rendering:geometricPrecision; image-rendering:optimizeQuality; fill-rule:evenodd; clip-rule:evenodd" xmlns:xlink="http://www.w3.org/1999/xlink">
<g><path style="opacity:0.997" fill="#fb4f4f" d="M 396.5,64.5 C 410.132,79.7311 421.298,96.7311 430,115.5C 445.138,150.823 442.138,184.49 421,216.5C 402.317,241.853 380.817,264.687 356.5,285C 317.622,318.116 275.622,346.783 230.5,371C 224.183,373.015 217.683,373.848 211,373.5C 182.813,372.776 155.979,366.443 130.5,354.5C 98.5485,325.732 72.0485,292.732 51,255.5C 27.8636,205.528 29.8636,156.528 57,108.5C 85.8833,68.8234 124.717,52.9901 173.5,61C 205.257,68.2901 229.09,86.1234 245,114.5C 248.789,121.743 252.289,129.076 255.5,136.5C 281.943,72.4445 328.943,48.4445 396.5,64.5 Z"/></g>
<g><path style="opacity:0.998" fill="#d54342" d="M 396.5,64.5 C 429.605,76.4367 452.771,98.77 466,131.5C 484.507,187.791 476.174,239.791 441,287.5C 391.331,349.847 333.498,403.014 267.5,447C 263.614,449.11 259.614,450.943 255.5,452.5C 249.56,450.196 243.893,447.363 238.5,444C 200.032,417.249 164.032,387.416 130.5,354.5C 155.979,366.443 182.813,372.776 211,373.5C 217.683,373.848 224.183,373.015 230.5,371C 275.622,346.783 317.622,318.116 356.5,285C 380.817,264.687 402.317,241.853 421,216.5C 442.138,184.49 445.138,150.823 430,115.5C 421.298,96.7311 410.132,79.7311 396.5,64.5 Z"/></g>
<g><path style="opacity:1" fill="#fd8282" d="M 115.5,89.5 C 121.402,88.962 127.068,89.7953 132.5,92C 135.231,94.6259 137.064,97.7926 138,101.5C 138.598,113.439 135.598,124.439 129,134.5C 121.547,146.954 111.713,157.12 99.5,165C 72.8754,179.469 61.3754,171.969 65,142.5C 74.591,117.746 91.4244,100.08 115.5,89.5 Z"/></g>
</svg>
