<?xml version="1.0" encoding="UTF-8"?>
<!DOCTYPE svg PUBLIC "-//W3C//DTD SVG 1.1//EN" "http://www.w3.org/Graphics/SVG/1.1/DTD/svg11.dtd">
<svg xmlns="http://www.w3.org/2000/svg" version="1.1" width="512px" height="512px" style="shape-rendering:geometricPrecision; text-rendering:geometricPrecision; image-rendering:optimizeQuality; fill-rule:evenodd; clip-rule:evenodd" xmlns:xlink="http://www.w3.org/1999/xlink">
<g><path style="opacity:0.987" fill="#000000" d="M 511.5,239.5 C 511.5,250.167 511.5,260.833 511.5,271.5C 502.158,329.018 469.825,367.185 414.5,386C 405.321,388.53 395.988,390.197 386.5,391C 299.167,391.667 211.833,391.667 124.5,391C 77.4753,386.083 41.642,363.583 17,323.5C 8.02863,307.085 2.1953,289.752 -0.5,271.5C -0.5,260.833 -0.5,250.167 -0.5,239.5C 8.84163,181.982 41.175,143.815 96.5,125C 105.679,122.47 115.012,120.803 124.5,120C 211.833,119.333 299.167,119.333 386.5,120C 433.525,124.917 469.358,147.417 494,187.5C 502.971,203.915 508.805,221.248 511.5,239.5 Z M 365.5,150.5 C 408.821,148.576 442.321,165.576 466,201.5C 485.333,237.5 485.333,273.5 466,309.5C 436.556,352.321 396.389,367.821 345.5,356C 304.067,341.566 279.567,312.733 272,269.5C 268.358,223.618 285.858,188.452 324.5,164C 337.459,156.958 351.126,152.458 365.5,150.5 Z"/></g>
</svg>
