<?xml version="1.0" encoding="UTF-8"?>
<!DOCTYPE svg PUBLIC "-//W3C//DTD SVG 1.1//EN" "http://www.w3.org/Graphics/SVG/1.1/DTD/svg11.dtd">
<svg xmlns="http://www.w3.org/2000/svg" version="1.1" width="512px" height="512px" style="shape-rendering:geometricPrecision; text-rendering:geometricPrecision; image-rendering:optimizeQuality; fill-rule:evenodd; clip-rule:evenodd" xmlns:xlink="http://www.w3.org/1999/xlink">
<g><path style="opacity:0.969" fill="#000000" d="M 179.5,101.5 C 210.4,99.9315 229.9,113.931 238,143.5C 238.5,169.165 238.667,194.831 238.5,220.5C 263.544,220.048 288.544,220.548 313.5,222C 323.09,227.162 326.256,234.996 323,245.5C 321.073,250.428 317.573,253.594 312.5,255C 287.836,255.5 263.169,255.667 238.5,255.5C 238.071,286.86 238.571,318.193 240,349.5C 246.905,374.911 263.405,388.911 289.5,391.5C 307.291,390.545 321.457,382.879 332,368.5C 333.955,365.281 335.288,361.947 336,358.5C 311.137,351.119 302.137,334.786 309,309.5C 320.342,290.274 336.508,284.774 357.5,293C 372.284,302.807 378.284,316.64 375.5,334.5C 376.118,374.126 358.784,402.626 323.5,420C 284.063,434.266 250.563,425.766 223,394.5C 211.947,380.05 205.613,363.717 204,345.5C 203.5,315.502 203.333,285.502 203.5,255.5C 190.496,255.667 177.496,255.5 164.5,255C 156.737,252.331 152.737,246.831 152.5,238.5C 152.809,230.704 156.476,225.204 163.5,222C 176.773,220.575 190.106,220.075 203.5,220.5C 203.667,196.498 203.5,172.498 203,148.5C 197.946,137.48 189.78,134.313 178.5,139C 172.292,143.957 169.459,150.457 170,158.5C 164.338,170.24 155.505,173.406 143.5,168C 139.872,165.362 137.372,161.862 136,157.5C 135.722,127.285 150.222,108.618 179.5,101.5 Z"/></g>
</svg>
