<svg id="Layer_1" data-name="Layer 1" xmlns="http://www.w3.org/2000/svg" xmlns:xlink="http://www.w3.org/1999/xlink" viewBox="0 0 256 256"><defs><style>.cls-1,.cls-4,.cls-5,.cls-6{fill:none;stroke-miterlimit:10;}.cls-1{stroke:#412d86;}.cls-2{fill:#764299;}.cls-3{fill:url(#linear-gradient);}.cls-4{stroke:url(#linear-gradient-2);}.cls-5{stroke:url(#linear-gradient-3);}.cls-6{stroke:url(#linear-gradient-4);}</style><linearGradient id="linear-gradient" x1="-26.32" y1="190.41" x2="166.49" y2="91.48" gradientUnits="userSpaceOnUse"><stop offset="0.23" stop-color="#874692"/><stop offset="0.48" stop-color="#6f3c92"/><stop offset="0.79" stop-color="#553291"/><stop offset="0.98" stop-color="#4c2e91"/></linearGradient><linearGradient id="linear-gradient-2" x1="140.42" y1="145.59" x2="119.02" y2="196.54" xlink:href="#linear-gradient"/><linearGradient id="linear-gradient-3" x1="186.41" y1="118.81" x2="154.88" y2="193.86" xlink:href="#linear-gradient"/><linearGradient id="linear-gradient-4" x1="230.18" y1="141" x2="205.55" y2="199.63" xlink:href="#linear-gradient"/></defs><path class="cls-1" d="M156.16,175.35H119.24a12.45,12.45,0,0,0,3.28,8.14,9.34,9.34,0,0,0,7,3.13q7.11,0,11.15-6.45l14.15,4.7q-7.89,13.8-24.51,13.79-12.22,0-19.46-7.41t-7.22-19.93a25.73,25.73,0,0,1,7.61-18.91A25.46,25.46,0,0,1,130,144.76a24.53,24.53,0,0,1,18.7,8q7.5,8,7.5,20.08ZM119.36,165H140.2q-2.17-9.7-9.94-9.7a10.33,10.33,0,0,0-10.9,9.7Z"/><path class="cls-1" d="M163.72,117.17h15.42v80.41H163.72Z"/><path class="cls-1" d="M225.43,198.58v-8.85h-.24a26.77,26.77,0,0,1-7.29,7.49,16.68,16.68,0,0,1-9.09,2.32q-9.1,0-15.48-7.83t-6.39-19a28.16,28.16,0,0,1,6.81-19q6.81-7.92,16.14-7.92a16.08,16.08,0,0,1,8,2,31.42,31.42,0,0,1,7.53,6.32V146.9h15.42v51.68Zm-11.32-37.4a9.61,9.61,0,0,0-7.65,3.64,13.75,13.75,0,0,0-3.07,9.19,11.8,11.8,0,0,0,2.92,8.34,9.93,9.93,0,0,0,7.68,3.16,10.17,10.17,0,0,0,7.83-3.64,12.78,12.78,0,0,0,3.25-8.83,11.88,11.88,0,0,0-3.25-8.34A10.15,10.15,0,0,0,214.11,161.18Z"/><path class="cls-2" d="M225,36.31c-.34-.05-1.29-.16-3.79-.39-22.85-2.11-45.26,5.67-66.6,23.16-16.55,13.56-32.52,33-47.45,57.81A443.3,443.3,0,0,0,75,183c-13.29-35.11-44.21-77.77-45.78-79.94a6.5,6.5,0,0,0-10.51,7.66c.45.61,44.65,61.6,49,94.42A6.69,6.69,0,0,0,73.43,211c.24,0,.49,0,.73,0a6.5,6.5,0,0,0,6.19-4.54c.5-1.58,52.85-144.7,129.51-166.93,4-1.18,10.22-1.61,15.12-3.24Z"/><path class="cls-2" d="M129.32,97.21c13.58-19.67,30.17-38.1,48.94-51.1-3.74,2.6-7.32,5.37-10.77,8.26s-6.72,5.94-9.91,9.05a138.47,138.47,0,0,1,14.49-12.49,114.64,114.64,0,0,1,16.64-10.35c-.85.64-2,1.38-3.23,2.15l-3.83,2.49c-1.24.86-2.44,1.68-3.39,2.43a11.52,11.52,0,0,0-2,1.88C163,59.19,151.49,70.7,141.09,82.82a353.61,353.61,0,0,0-28.11,38C117.9,109.37,124.32,104.34,129.32,97.21Z"/><path class="cls-2" d="M225,36.31l-2-6.06h-.05l0,0-.11,0-.22.07-.44.14c-.31.09-.6.18-.93.26-.63.17-1.29.32-2,.46-1.36.29-2.79.54-4.28.79,1.58-.31,3.07-.6,4.43-.9l1.93-.45.88-.22.41-.11.2-.05.1,0h.1Z"/><path class="cls-2" d="M39.15,141.25l-5.86-8.91C35.33,135.19,37.25,138.21,39.15,141.25Z"/><path class="cls-2" d="M110.58,134.6c-.82,1.71-1.64,3.43-2.51,5.16q-10.72,18.87-20.24,39.1C94.63,164.15,101.74,148.29,110.58,134.6Z"/><path class="cls-2" d="M120,122a226.88,226.88,0,0,1,25.94-35A262.53,262.53,0,0,0,120,122Z"/><path class="cls-2" d="M65.41,142.87c.1-.13.34.06.63.38a7.18,7.18,0,0,0,.76.93l2.06,4.07,1,2,.51,1,.13.26.06.12,0,.05.09.2.67,1.64.35.85.27.74a3.19,3.19,0,0,0-.45-.45A2.76,2.76,0,0,1,71,154c-.64-1.47-.46-1.68-1.63-4.1A48.28,48.28,0,0,0,65.41,142.87Z"/><path class="cls-2" d="M41.27,144.63l.26.28,2,3.08.18.4C42.86,147.16,42.08,145.9,41.27,144.63Z"/><path class="cls-2" d="M61.62,136.17a1.29,1.29,0,0,0,.29-1.07c1.68,3,3.25,6,4.85,9-.25-.32-.5-.63-.72-.87C64.74,141.39,63.25,138.14,61.62,136.17Z"/><path class="cls-2" d="M15.42,125.74a29.78,29.78,0,0,0,3.38,3.68l8.52,15c.65.76,1.76,2.53,3.05,4,.4,1.12.89,2.3,1.42,3.53q-5.35-9-11.2-18.1-2.93-4.54-6-9.08l-3.07-4.54L10,118.05l-.37-.53,0-.06,0,0h0l2.81-2c6.15-4.49-3.41,2.48-2.82,2l0,0,0,0-.07-.09L9.3,117l-.52-.81a18.7,18.7,0,0,1-1.64-3.51A17.77,17.77,0,0,0,9,116.44l.58.86.22.31.43.58,1.74,2.44Q13.68,123.12,15.42,125.74Z"/><path class="cls-3" d="M222.49,32.89c-9.85-.79-20.73-.37-31,2.47A77.36,77.36,0,0,0,164,48.81a113.47,113.47,0,0,1,15.91-7.94,83.49,83.49,0,0,1,16.86-4.79,58.18,58.18,0,0,1,13.86-.81,26.49,26.49,0,0,1,4.52.62,5.48,5.48,0,0,1,2.36.91c.76.68-.7.88-3.53,1-1.42,0-3.19.18-5.21.24s-4.29.29-6.7.65a83.32,83.32,0,0,0-15.33,3.48,74,74,0,0,0-13.52,5.91c2.09-.83,2.07-.87,4.19-1.59a20.32,20.32,0,0,0-5.78,2.81c1-.42,2.31-1,3.66-1.56s2.83-1.1,4.23-1.64a28.59,28.59,0,0,1,6.77-1.73l-1.7,1-1.65,1,2.12-.54,2.31-.54c1.58-.43,3.29-.73,5-1.13a85.48,85.48,0,0,1,11.16-1.54l1.43-.1,1.43,0c.94,0,1.88-.06,2.82,0,1.86.07,3.68.11,5.41.34a48.47,48.47,0,0,1,4.92.76c1.53.29,3,.7,4.31,1.05-1.59-.33-3.25-.74-4.83-1l-2.43-.42L214.19,43c-1.67-.22-3.36-.21-5.08-.31-.85,0-1.72,0-2.59,0s-1.74,0-2.62.12l-2.65.21c-.88.1-1.77.25-2.66.37-1.8.2-3.57.66-5.38,1l-2.69.7-1.36.36-1.34.44-2.71.88-2.68,1c-.9.33-1.79.71-2.67,1.12l-2.67,1.2c-1.74.92-3.54,1.74-5.26,2.77l-2.61,1.5L166.67,56c-1.74,1.05-3.37,2.3-5.06,3.46a139.44,139.44,0,0,0-18.83,16.76c-11.79,12.47-22,27-30.93,42.14-4.48,7.56-8.61,15.31-12.51,23.07-1.94,3.89-3.83,7.77-5.63,11.67l-2.78,6.06c-1.23,2.78-2.48,5.53-3.66,8.35-2.13,5-4.15,10.38-6.21,15.76L78,191.43l-1.52,4.1-.76,2.06-.37,1c0,.08-.07.19-.1.25l-.09.08-.19.16q-1.6-3.68-3.19-7.34c-1.06-2.44-2.27-5.05-3.41-7.61l-1.75-3.87-1.79-3.78c-1.21-2.5-2.42-5.13-3.67-7.6-1.28-2.32-2.55-4.63-3.83-6.93l-1-1.75c-.16-.27-.35-.64-.47-.83l-.34-.56-1.39-2.22c-1.82-3-3.73-5.87-5.63-8.75-7.66-11.46-15.75-22.24-24-32.35-.93-1.21-2.17-2.89-3.57-4.8l-.53-.72-.13-.18-.07-.09,0,0,0,0h0L23.85,107l.06,0c.07,0,.09-.09.08-.06s0,.11,0,0,0-.06,0,0L24,107a.59.59,0,0,0-.09-.11c-.08-.06.1,0,.05,0s-.19.07.07-.09h0l3.53-2.57h0l0,.07.1.13.17.24.32.47.63.92,1.2,1.76c5.78,7.89,11.32,15.88,16.72,24s10.66,16.31,15.71,24.73c3,5.33,5.9,10.78,8.52,16.45q1,2.11,1.92,4.3c.63,1.44,1.23,2.92,1.81,4.41l.44,1.11.22.56h0v0s0,0,0,.1.07.17.16.11l0,0,0,0h0l.06-.15.14-.32c.76-1.69,1.51-3.39,2.27-5.1q2.28-5.1,4.69-10.22,4.82-10.24,10.09-20.63c2-3.91,5-8.22,6.26-9.12s.76,1.56-3.87,11.27Q89.71,161.45,84.4,173.8L81.77,180l-1.31,3.11-.65,1.55-.37.92-1.7,4.35a6.71,6.71,0,0,1,.49-2.61c.15-.44.31-.88.43-1.3a5.13,5.13,0,0,0,.14-.6c0-.1,0-.19,0-.27v-.23l0-.09-1.26,2.22c-.35.65-.65,1.25-.92,1.85A1.57,1.57,0,0,1,75.14,190a1.62,1.62,0,0,1-1.57-1.27,1.49,1.49,0,0,0,2.35.87,1.65,1.65,0,0,0,.5-.58c.11-.23.17-.48.26-.72l.5-1.42-.69,2a1.53,1.53,0,0,1-1.72.94,1.6,1.6,0,0,1-1.22-1.54,13.34,13.34,0,0,0-.54-2.11c-.1-.29-.19-.58-.3-.88l-.58-1.46c-1-2.64-2.11-5.22-3.25-7.77-2.29-5.09-4.78-10-7.4-14.83-2.08-3.9-3.51-7.82-5.44-12a58,58,0,0,0-8.31-13.4c5,8.7,9.86,17.63,14.34,26.93,2.24,4.65,4.39,9.39,6.39,14.27l1.46,3.7,1.39,3.76.16.44,0,.14.09.3.17.59.32,1.23a27.43,27.43,0,0,1,.57,2.84,8.13,8.13,0,0,0,.26,1.46,2.51,2.51,0,0,0,.89,1.16,2.18,2.18,0,0,0,2.68-.14,2.52,2.52,0,0,0,.73-1.21l.52-1.37v.14c.44-1.19.88-2.32,1.33-3.41l.88-2.09L82,180c2.7-6.12,5.49-12.12,8.45-18.28-1.75,3.87-3.46,7.85-5.14,11.2,8.92-17.79,18.11-35.14,28.46-51.91-9.28,17-18.2,35-26.49,53.46-1,2.32-2,4.65-3.07,7-.86,2-1.72,4.05-2.59,6.07-1.07,2.57-2.12,5.16-3.1,7.77a9.28,9.28,0,0,1-.83,1.91,3.55,3.55,0,0,1-5.46.46,3.91,3.91,0,0,1-1-1.82l-.34-2.05c-.15-.68-.3-1.36-.46-2s-.35-1.34-.55-2L69.33,188l-.61-1.7-.07-.21-.12-.31-.31-.79-.61-1.58c-.41-1.06-.84-2.09-1.28-3.12-1.73-4.13-3.61-8.14-5.58-12.06-3.92-7.86-8.2-15.35-12.62-22.57,3.44,7.11,8,15,12.09,23,2,4,3.94,8,5.49,11.94.8,1.92,1.47,3.93,2.06,5.71a30.57,30.57,0,0,1,.73,3.5c-.3-1-.66-2-1-2.94l-.13-.37-.2-.53-.44-1.14-.89-2.29c-1.24-3-2.53-6-3.9-8.94-2.73-5.89-5.68-11.65-8.76-17.35-6.18-11.38-12.9-22.49-20-33.54,1.15,1.58,2.29,3.11,3.44,4.63-2-3.54-4.21-7.06-6.51-10.55-1.15-1.75-2.33-3.48-3.53-5.21l-3.14-4.44a.59.59,0,0,1,0-.58.7.7,0,0,1,.48-.39.69.69,0,0,1,.62.2s0,0,.07.08l.43.6.86,1.22,1.7,2.46,2.37,3.55c-.77-1.18-1.56-2.37-2.37-3.55L26,108.51l-1.44-2.08A.84.84,0,0,0,24,106a1,1,0,0,0-1.11,1,1.06,1.06,0,0,0,.08.43.22.22,0,0,0,.05.11s0,0,0,.1l.21.3.79,1.14,3.1,4.56q3,4.56,6,9.13c-2-2.69-3.94-5.48-6-8.48l-3.25-4.66L23,108.38l-.22-.31a1.5,1.5,0,0,1-.17-.25c0-.06-.08-.1-.09-.16a1.46,1.46,0,0,1-.14-.71,1.29,1.29,0,0,0,0,1s0,0,0,.1l.15.24.28.45.57.92,1.19,1.9,5.13,8.15c4.79,7.18,9.43,14.46,13.81,21.82A329.57,329.57,0,0,0,21.69,110.2c5,7.46,9.91,15.08,14.7,22.8s9.41,15.57,13.67,23.5c-4.91-8.59-10.11-17-15.52-25.2-4.37-7-8.89-14-13.64-20.84a7.37,7.37,0,0,1-1.24-2.17,4.69,4.69,0,0,1-.11-2.14,4.48,4.48,0,0,1,2.55-3.22,4.37,4.37,0,0,1,4,.24,4.3,4.3,0,0,1,.82.64,4.13,4.13,0,0,1,.34.39l.17.23.23.31,1.79,2.56-1.15-1.53,2.22,3.09q5.55,8.08,10.89,16.44c3.24,5,6.6,9.71,9.91,14.48l1.51,2.51c-1.16-1.47-1.83-2.11-.11,1L55.24,148l2.58,4.72,2.67,4.85,3,5.76a228.26,228.26,0,0,1,11.34,26.06c.09.08.17.19.25.25l.24-.55.49-1.11,1-2.21c2.13-4.64,5.07-12.33,8.14-19.92a17.27,17.27,0,0,0,1.68-4.09c.67-1.59,1.36-3.25,2-4.77,1.46-3.23,3-6.45,4.36-9.66-1.51,3.11-3,6.38-4.36,9.66-.64,1.37-1.29,2.87-1.91,4.3a20.85,20.85,0,0,1,1.46-4.34q-3.57,7.6-6.91,15.43-1.64,3.93-3.29,7.87l-1.61,3.94-.79,2-.4,1-.1.24,0,.13,0,.05,0,0-.2-.27c-3.12-8.18-6.75-16.42-10.54-24.16l-2.91-5.69c-.25-.49-.48-.92-.71-1.33L60,154.81l-1.38-2.52c-.91-1.69-1.86-3.36-2.83-5s-1.9-3.34-2.91-5c1,1.2,2.21,3,2.78,3.71-1.4-2.1-2.85-4.15-4.29-6.22Q44.94,129.19,37.88,119c1.5,2,2.9,3.78,4.25,5.3-3.16-5-6.45-9.86-9.82-14.71L29.77,106l-1.29-1.8c-.23-.32-.42-.54-.61-.77a6.25,6.25,0,0,0-.65-.61,5.23,5.23,0,0,0-3.34-1.11,5.19,5.19,0,0,0-4.45,7.69,2.85,2.85,0,0,0,.23.37,4.71,4.71,0,0,0,.29.41l.66.91,1.3,1.81,2.58,3.65q5.13,7.31,10.05,14.78c5.89,9.5,11.49,19.12,16.64,28.95,2.57,4.92,5,9.89,7.29,14.93,1.14,2.52,2.23,5.07,3.25,7.63s2,5.21,2.83,7.65c-.4-1.39-.76-2.71-1.27-4.17s-1-2.87-1.49-4.3c-1-2.87-2.22-5.71-3.46-8.56-2.48-5.69-5.28-11.33-8.27-16.93,3.4,6,6.64,12.07,9.61,18.32.76,1.56,1.45,3.15,2.17,4.72s1.39,3.18,2,4.79l.95,2.43.24.6.18.51.37,1c.51,1.34.93,2.71,1.37,4.08.31,1,.56,2,.84,3s.46,2,.69,3l.51,3.08a5.94,5.94,0,0,0,1.43,2.74,5.41,5.41,0,0,0,8.24-.33A10.18,10.18,0,0,0,80,201.7c1.49-3.86,3.1-7.69,4.8-11.57l1.35-3,1.55-3.4c1-2.27,2.1-4.52,3.17-6.76-.88,2.93-1.93,6.39-2.89,9.59-.47,1.6-.88,3.11-1.24,4.57s-.65,2.83-.82,4c.25.13,1.56-2.55,2.56-4.5l.66-1.25a3,3,0,0,1,.35-.53c.11-.07,0,.31-.64,2.08l-3.08,8.68a60.29,60.29,0,0,1-3.27,7.48l-1.52,3a7.17,7.17,0,0,1-2.11,2.46,8.45,8.45,0,0,1-11.33-1.31,7.22,7.22,0,0,1-1.22-2c-.28-.68-.55-1.35-.83-2s-.61-1.3-.95-2-.69-1.25-1-1.91-.68-1.44-1-2.12l-.53-1-.27-.49-.23-.56c-.48-1-1-1.93-1.44-2.82-.32-.44-.2,1.24.17,4.26,0,.31,0,.68.1,1l.19,1,.43,2.1.49,2.3c.19.71.42,1.27.64,1.93,1,2.76,1.75,4.63,2.5,6.27A17.74,17.74,0,0,0,67,218.5c.22.28.23.42,0,.4a4.5,4.5,0,0,1-1.51-.68,11,11,0,0,1-1.91-1.63l-1.92-2.16-1.21-1.78-.63-.93-.33-.47a1.86,1.86,0,0,1-.31-.57l-1.14-3-.59-1.57-.3-.79c-.07-.32-.13-.66-.19-1l-1-4c-.17-.68-.32-1.39-.51-2.07l-.67-2-1.38-4-.18-.51-.11-.26-.21-.52-.44-1.05c-1.14-2.82-2.52-5.78-3.94-8.81-1.48-3.36-3.11-6.83-5-10.39a9.38,9.38,0,0,0-1.4-2c-6.68-12.32-13.89-23.8-17.78-30.21-1.44-2.39-2.89-4.74-4.36-7.07a22.93,22.93,0,0,1-1.45-3.41q-1.73-2-3.35-4l-3-4.59-1.53-2.23-.51-.76a15,15,0,0,1-.93-1.54,16.51,16.51,0,0,1-1.35-3.36A16.7,16.7,0,0,1,21.71,90.45a16.51,16.51,0,0,1,7.67,1,16.29,16.29,0,0,1,6.32,4.33,15,15,0,0,1,1.18,1.48l.13.18.06.08.1.18.22.34.84,1.35L39.89,102c.11-.18-.06-.89.56-.35,5.34,7.8,10.43,15.61,15.36,23.55a87,87,0,0,1,4.41,9.45c.84,1,1.74,2.15,2.7,3.48s1.93,2.87,3,4.52S68,146.1,69,148l1.6,2.88.5.91.28.53.54,1.08.27.55.19.43c.26.59.54,1.18.79,1.78.51,1.2,1,2.42,1.4,3.3l0,0v-.16l0,.09,0-.09.08-.19.15-.37.3-.74.64-1.5c.44-1,.9-2,1.38-3,.28-.2.6-.42,1-.66v-.39s0-.05.06-.2l.52-1.38c.34-.87.63-1.62.79-2.11,3.06-5.93,5.93-10.79,8.88-15.61a26.37,26.37,0,0,1,1.76-4.9l6.23-11.15c2.53-4.16,5.11-8.36,7.89-12.51q7-10.5,14.83-20.23A204.87,204.87,0,0,1,136,65.92a1.31,1.31,0,0,1,1.12,0c1.54-2.1,4.33-4.41,5.9-6.13-.26.37-.38.65-.23.71A42.35,42.35,0,0,1,148.88,55c1.73-1.31,3.53-2.39,6.31-4.4,1.24-.92,2.25-2,3.44-3,.64-.41,1.29-.81,1.94-1.21.91-.41,1.79-.85,2.66-1.29s1.78-.86,2.65-1.31l5.28-2.75c1.77-1,3.63-1.79,5.49-2.74l2.89-1.28L181,36.4l1.54-.57a89.45,89.45,0,0,1,12.71-3.38,91,91,0,0,1,13-1.42c1.74,0,3.2,0,4.5.1s2.42.29,3.47.45,2,.42,3,.62Z"/><path class="cls-2" d="M72.26,155.88c.75,2,1.53,4.32,2.35,6.94l0,.16,0,.07,0,0,.1-.18.2-.38.42-.77-.41,1-.2.53-.1.26s0,.07,0,0l0-.06,0-.12c-.47-1.06-.89-2.17-1.35-3.41A19.84,19.84,0,0,1,72.26,155.88Z"/><path class="cls-2" d="M71.92,221.66a15.7,15.7,0,0,0,6.59.25,17.37,17.37,0,0,0,3-.83c.45-.18.88-.36,1.25-.54s.71-.35,1.09-.56c-.49.32-.89.58-1.43.88a17,17,0,0,1-6.45,2,18.47,18.47,0,0,1-5.14-.21,17.27,17.27,0,0,1-4.58-1.56,15.9,15.9,0,0,1-3.21-2.15c-.39-.33-.81-.81-1.21-1.21s-.81-.78-1.24-1.3l-1.4-2-.7-1-.35-.5a4.74,4.74,0,0,1-.3-.74L56.72,209l-.57-1.58c-.1-.26-.2-.51-.28-.79l-.17-1L54.89,202l-.41-1.84-.2-.92-.27-.84L52.9,195l-.55-1.69c-.17-.51-.41-1.28-.48-1.41l-1.24-3.19-1.34-3.21c-1.85-4.29-3.91-8.62-6.11-12.93l0-.05c2,3.79,4.11,8.13,6,12.57l1.36,3.34,1.27,3.32.17.45.28.87.57,1.74L54,198.31l.28.86.21.93.42,1.86.82,3.68a10.31,10.31,0,0,0,.78,2.64l.89,2.4.44,1.18.22.58.11.29.13.19,1.06,1.45,1,1.41c.17.2.36.51.5.63l.44.42L63,218.42a14.93,14.93,0,0,0,4.08,2.32A14.11,14.11,0,0,0,71.92,221.66Z"/><path class="cls-2" d="M66,143.25c.22.24.47.55.72.87l0,.06A7.18,7.18,0,0,1,66,143.25Z"/><path class="cls-2" d="M91,180.47l.8-1.72-2.76,6.66-2.74,6.78C87.65,188.42,89.24,184.54,91,180.47Z"/><path class="cls-2" d="M115,134.64c4.8-8.55,9.87-17,15.3-25.16a209.93,209.93,0,0,1,23.41-28.35C139.05,97.36,126.41,115.52,115,134.64Z"/><path class="cls-2" d="M101.66,185c1.83-3.52,3.79-7,5.77-10.56q-2.69,5.43-5.18,10.87C102.38,184.51,101.87,185,101.66,185Z"/><path class="cls-2" d="M70.28,210.37A6.76,6.76,0,0,0,73,211.49a6.73,6.73,0,0,1-5.58-4.22,6.52,6.52,0,0,0,2.83,3.1Z"/><path class="cls-2" d="M121.88,147.42q-2.22,3.81-4.35,7.65c.72-1.59,1.38-3.19,2-4.82A22.43,22.43,0,0,0,121.88,147.42Z"/><path class="cls-2" d="M145.9,108.92c2.35-3.2,4.68-6.26,7-9.1-2.76,3.62-5.49,7.43-8.13,11.24A10.17,10.17,0,0,1,145.9,108.92Z"/><path class="cls-4" d="M155.37,174.31H118.45a12.47,12.47,0,0,0,3.28,8.13,9.32,9.32,0,0,0,7,3.13q7.11,0,11.14-6.44l14.16,4.7q-7.89,13.78-24.52,13.79-12.23,0-19.45-7.41t-7.23-19.93a25.76,25.76,0,0,1,7.62-18.92,25.47,25.47,0,0,1,18.76-7.64,24.5,24.5,0,0,1,18.7,8q7.5,8,7.5,20.08ZM118.57,164h20.84q-2.16-9.69-9.94-9.69a10.33,10.33,0,0,0-10.9,9.69Z"/><path class="cls-5" d="M162.94,116.13h15.42v80.41H162.94Z"/><path class="cls-6" d="M224.65,197.54v-8.86h-.24a26.69,26.69,0,0,1-7.29,7.5,16.69,16.69,0,0,1-9.1,2.32q-9.09,0-15.47-7.83t-6.39-19a28.16,28.16,0,0,1,6.81-19q6.79-7.92,16.14-7.92a16.18,16.18,0,0,1,8,2,31.73,31.73,0,0,1,7.53,6.33v-7.17h15.42v51.68Zm-11.33-37.41a9.58,9.58,0,0,0-7.64,3.65A13.75,13.75,0,0,0,202.6,173a11.81,11.81,0,0,0,2.92,8.34,10,10,0,0,0,7.68,3.17,10.11,10.11,0,0,0,7.83-3.65,12.78,12.78,0,0,0,3.26-8.82,11.89,11.89,0,0,0-3.26-8.34A10.13,10.13,0,0,0,213.32,160.13Z"/></svg>