<?xml version="1.0" encoding="UTF-8"?>
<!DOCTYPE svg PUBLIC "-//W3C//DTD SVG 1.1//EN" "http://www.w3.org/Graphics/SVG/1.1/DTD/svg11.dtd">
<svg xmlns="http://www.w3.org/2000/svg" version="1.1" width="512px" height="512px" style="shape-rendering:geometricPrecision; text-rendering:geometricPrecision; image-rendering:optimizeQuality; fill-rule:evenodd; clip-rule:evenodd" xmlns:xlink="http://www.w3.org/1999/xlink">
<g><path style="opacity:0.969" fill="#000000" d="M 511.5,86.5 C 511.5,91.1667 511.5,95.8333 511.5,100.5C 509.789,104.907 507.289,108.907 504,112.5C 396.167,220.333 288.333,328.167 180.5,436C 173.159,442.999 164.492,445.332 154.5,443C 151.126,442.479 148.126,441.146 145.5,439C 98.3333,391.833 51.1667,344.667 4,297.5C 1.92117,294.676 0.421175,291.676 -0.5,288.5C -0.5,283.833 -0.5,279.167 -0.5,274.5C 7.99989,256.72 21.3332,251.886 39.5,260C 80.3057,299.805 120.806,339.972 161,380.5C 262.833,278.667 364.667,176.833 466.5,75C 475.282,67.4561 485.282,65.4561 496.5,69C 503.934,72.9203 508.934,78.7536 511.5,86.5 Z"/></g>
</svg>
