<?xml version="1.0" encoding="UTF-8"?>
<!DOCTYPE svg PUBLIC "-//W3C//DTD SVG 1.1//EN" "http://www.w3.org/Graphics/SVG/1.1/DTD/svg11.dtd">
<svg xmlns="http://www.w3.org/2000/svg" version="1.1" width="512px" height="512px" style="shape-rendering:geometricPrecision; text-rendering:geometricPrecision; image-rendering:optimizeQuality; fill-rule:evenodd; clip-rule:evenodd" xmlns:xlink="http://www.w3.org/1999/xlink">
<g><path style="opacity:0.962" fill="#000000" d="M 236.5,-0.5 C 246.833,-0.5 257.167,-0.5 267.5,-0.5C 317.797,8.28989 351.963,36.6232 370,84.5C 385.759,147.928 366.259,197.094 311.5,232C 275.908,249.392 239.574,251.059 202.5,237C 149.294,210.39 124.794,167.223 129,107.5C 135.481,65.6925 156.981,34.1925 193.5,13C 207.16,5.94454 221.493,1.44454 236.5,-0.5 Z M 238.5,30.5 C 284.636,27.1441 317.803,46.1441 338,87.5C 353.721,136.678 340.221,175.511 297.5,204C 271.245,217.314 244.245,218.981 216.5,209C 165.888,182.258 149.055,141.424 166,86.5C 180.787,55.5313 204.953,36.8646 238.5,30.5 Z"/></g>
<g><path style="opacity:0.971" fill="#000000" d="M 393.5,511.5 C 301.167,511.5 208.833,511.5 116.5,511.5C 84.553,507.395 61.7197,490.728 48,461.5C 44.9767,454.097 42.9767,446.431 42,438.5C 39.3143,400.004 43.6476,362.338 55,325.5C 62.4542,302.068 75.2875,282.235 93.5,266C 114.012,250.497 137.012,244.497 162.5,248C 173.503,254.166 184.17,260.833 194.5,268C 232.636,290.13 271.303,291.13 310.5,271C 322.665,263.083 334.999,255.416 347.5,248C 388.504,243.919 419.671,259.419 441,294.5C 457.001,324.831 466.001,357.164 468,391.5C 469.439,407.517 469.439,423.517 468,439.5C 459.981,480.922 435.147,504.922 393.5,511.5 Z M 144.5,277.5 C 147.187,277.336 149.854,277.503 152.5,278C 168.051,288.612 184.385,297.945 201.5,306C 245.7,322.643 288.367,319.309 329.5,296C 338.833,290 348.167,284 357.5,278C 382.676,277.849 401.509,288.682 414,310.5C 426.358,333.247 433.691,357.58 436,383.5C 437.907,401.502 438.241,419.502 437,437.5C 431.945,459.555 418.445,473.389 396.5,479C 390.551,480.073 384.551,480.74 378.5,481C 296.167,481.667 213.833,481.667 131.5,481C 107.969,481.822 90.136,472.322 78,452.5C 75.7314,447.36 74.0647,442.027 73,436.5C 70.0648,398.715 75.0648,362.048 88,326.5C 94.7981,309.046 105.965,295.212 121.5,285C 128.991,281.558 136.658,279.058 144.5,277.5 Z"/></g>
</svg>
