<svg id="Layer_1" data-name="Layer 1" xmlns="http://www.w3.org/2000/svg" xmlns:xlink="http://www.w3.org/1999/xlink" viewBox="0 0 256 256"><defs><style>.cls-1{fill:#ad3c96;}.cls-2{fill:url(#linear-gradient);}</style><linearGradient id="linear-gradient" x1="172.75" y1="87.8" x2="97.84" y2="266.11" gradientTransform="translate(314.74 40.22) rotate(93.21)" gradientUnits="userSpaceOnUse"><stop offset="0.23" stop-color="#874692"/><stop offset="0.48" stop-color="#6f3c92"/><stop offset="0.79" stop-color="#553291"/><stop offset="0.98" stop-color="#4c2e91"/></linearGradient></defs><path class="cls-1" d="M97.84,19.25,220.2,111.54a31.79,31.79,0,0,1,13.12,15h0a31.82,31.82,0,0,1,2.35,15.86c0,.21,0,.41-.08.61s0,.41-.07.61a31.81,31.81,0,0,1-6.13,14.82h0A31.72,31.72,0,0,1,213,169.8L70.34,230.28a31.79,31.79,0,0,1-17.52,3.38l-.56-.06-.4,0h0l-.35-.05c-.37,0-.75-.1-1.12-.17l-.27,0a31.87,31.87,0,0,1-23.89-19h0a31.75,31.75,0,0,1-1.74-19.48L43.4,41.45A31.69,31.69,0,0,1,49.82,23h0c.48-.63,1-1.24,1.49-1.82.08-.1.17-.19.25-.28l.58-.63a31.84,31.84,0,0,1,27.24-9.93h0A31.79,31.79,0,0,1,97.84,19.25Z"/><path class="cls-2" d="M89.23,238.44,218.45,156a31.74,31.74,0,0,0,14.26-13.92h0a31.69,31.69,0,0,0,3.58-15.63c0-.21,0-.41,0-.61l0-.62a31.76,31.76,0,0,0-5-15.25h0a31.75,31.75,0,0,0-15.43-12.61L78.37,25.9a31.76,31.76,0,0,0-17.2-4.74h-1l-.35,0-1.12.08-.28,0a31.9,31.9,0,0,0-25.31,17h0a31.78,31.78,0,0,0-3.26,19.28L36.7,212A31.74,31.74,0,0,0,41.65,231h0c.42.67.88,1.31,1.34,1.94a3.15,3.15,0,0,1,.22.29l.53.68a31.87,31.87,0,0,0,26.39,12h0A31.76,31.76,0,0,0,89.23,238.44Z"/></svg>