<?xml version="1.0" encoding="UTF-8"?>
<!DOCTYPE svg PUBLIC "-//W3C//DTD SVG 1.1//EN" "http://www.w3.org/Graphics/SVG/1.1/DTD/svg11.dtd">
<svg xmlns="http://www.w3.org/2000/svg" version="1.1" width="512px" height="512px" style="shape-rendering:geometricPrecision; text-rendering:geometricPrecision; image-rendering:optimizeQuality; fill-rule:evenodd; clip-rule:evenodd" xmlns:xlink="http://www.w3.org/1999/xlink">
<g><path style="opacity:0.96" fill="#000000" d="M 76.5,116.5 C 153.167,116.333 229.834,116.5 306.5,117C 330.435,121.601 345.268,135.768 351,159.5C 351.168,169.849 351.668,180.183 352.5,190.5C 378.677,171.911 404.677,153.078 430.5,134C 447.125,126.192 461.625,129.025 474,142.5C 475.941,146.048 477.607,149.714 479,153.5C 479.667,221.5 479.667,289.5 479,357.5C 470.797,378.184 455.964,385.351 434.5,379C 407.028,359.694 379.694,340.194 352.5,320.5C 351.668,330.817 351.168,341.151 351,351.5C 346.009,373.157 332.842,386.99 311.5,393C 233.202,394.652 154.869,394.985 76.5,394C 52.5649,389.399 37.7316,375.232 32,351.5C 31.3333,287.5 31.3333,223.5 32,159.5C 37.9088,135.755 52.7421,121.422 76.5,116.5 Z M 80.5,138.5 C 154.501,138.333 228.501,138.5 302.5,139C 316.921,141.755 325.754,150.255 329,164.5C 329.667,225.167 329.667,285.833 329,346.5C 325.754,360.745 316.921,369.245 302.5,372C 228.5,372.667 154.5,372.667 80.5,372C 66.0793,369.245 57.246,360.745 54,346.5C 53.3333,285.833 53.3333,225.167 54,164.5C 57.4239,150.242 66.2573,141.575 80.5,138.5 Z M 445.5,151.5 C 450.673,151.668 454.506,154.002 457,158.5C 457.667,222.833 457.667,287.167 457,351.5C 453.739,358.886 448.572,360.719 441.5,357C 411.973,335.306 382.307,313.806 352.5,292.5C 351.167,267.833 351.167,243.167 352.5,218.5C 383.391,195.9 414.391,173.567 445.5,151.5 Z"/></g>
</svg>
