<?xml version="1.0" encoding="UTF-8"?>
<!DOCTYPE svg PUBLIC "-//W3C//DTD SVG 1.1//EN" "http://www.w3.org/Graphics/SVG/1.1/DTD/svg11.dtd">
<svg xmlns="http://www.w3.org/2000/svg" version="1.1" width="512px" height="512px" style="shape-rendering:geometricPrecision; text-rendering:geometricPrecision; image-rendering:optimizeQuality; fill-rule:evenodd; clip-rule:evenodd" xmlns:xlink="http://www.w3.org/1999/xlink">
<g><path style="opacity:0.986" fill="#000000" d="M 511.5,252.5 C 511.5,254.5 511.5,256.5 511.5,258.5C 478.058,336.085 421.391,388.919 341.5,417C 238.433,446.643 146.766,426.309 66.5,356C 37.6059,327.951 15.2725,295.451 -0.5,258.5C -0.5,256.5 -0.5,254.5 -0.5,252.5C 32.9419,174.915 89.6086,122.081 169.5,94C 272.567,64.3573 364.234,84.6907 444.5,155C 473.394,183.049 495.727,215.549 511.5,252.5 Z M 248.5,139.5 C 299.017,139.329 336.184,161.329 360,205.5C 379.191,250.958 373.524,292.958 343,331.5C 306.259,369.559 262.759,380.059 212.5,363C 166.646,341.948 142.312,306.115 139.5,255.5C 141.922,208.127 163.922,173.294 205.5,151C 219.329,144.795 233.663,140.961 248.5,139.5 Z"/></g>
<g><path style="opacity:0.984" fill="#000000" d="M 245.5,185.5 C 280.828,183.071 305.994,197.737 321,229.5C 332.058,264.656 322.891,293.156 293.5,315C 266.757,329.546 240.424,328.879 214.5,313C 187.347,290.863 179.18,263.029 190,229.5C 200.92,205.14 219.42,190.473 245.5,185.5 Z"/></g>
</svg>
